<?xml version="1.0" encoding="UTF-8" standalone="no"?>
<!DOCTYPE svg PUBLIC "-//W3C//DTD SVG 1.1//EN" "http://www.w3.org/Graphics/SVG/1.1/DTD/svg11.dtd">
<svg width="100%" height="100%" viewBox="0 0 553 825" version="1.1" xmlns="http://www.w3.org/2000/svg" xmlns:xlink="http://www.w3.org/1999/xlink" xml:space="preserve" xmlns:serif="http://www.serif.com/" style="fill-rule:evenodd;clip-rule:evenodd;stroke-linecap:round;stroke-linejoin:round;stroke-miterlimit:1.5;">
    <g transform="matrix(1,0,0,1,-1599.5,-7126.32)">
        <g transform="matrix(0.120588,0,0,0.123402,1418.86,6858.07)">
            <path d="M5962.91,5113.2L5956.95,5131.63C5959.02,5125.56 5961.06,5119.41 5963.07,5113.2L5963.43,5113.19L5987.2,5042.67L6050.54,4728.63L6050.57,4728.64C6066.71,4630.76 6076.91,4548.45 6081.62,4507.57L5986.94,4507.57L5985.11,4508.11L5393.02,4508.11L3756.42,4531.42L3765.15,5144.5L5088.14,5125.66C4719.84,6177.38 3808.79,7584.87 3808.79,7584.87C3808.79,7584.87 2350,5381.41 2345.11,4433.87C2340.98,3635.04 2986.17,2983.15 3784.99,2979.02C4399.21,2975.85 4926.56,3356.56 5139.38,3895.82L6013.95,3895.82C5758.38,2902.06 4853.06,2169.08 3780.63,2174.62C2514.77,2181.16 1492.37,3214.19 1498.91,4480.04C1505.71,5796.96 3815.16,8857.91 3815.16,8857.91C3815.16,8857.91 5489.58,6590.26 5962.91,5113.2ZM5959.88,5122.61L5959.43,5124.03L5958.72,5126.2L5959.88,5122.61L5959.89,5122.58L5960.13,5121.86L5960.27,5121.42L5961.51,5117.56C5961.51,5117.56 5961.52,5117.53 5961.52,5117.53L5961.51,5117.56L5960.27,5121.42L5959.89,5122.58L5958.72,5126.19L5957.31,5130.55L5958.58,5126.63L5959.89,5122.58L5960.27,5121.42L5961.51,5117.56L5962.91,5113.2L5961.52,5117.53L5961.51,5117.56L5960.48,5120.77L5960.27,5121.42L5960.12,5121.87L5959.88,5122.61Z" style="fill:rgb(5,166,107);stroke:black;stroke-width:1.71px;"/>
        </g>
    </g>
</svg>
